{
  "accessors": [
    {
      "bufferView": 2,
      "componentType": 5126,
      "count": 65532,
      "max": [
        0.72890299558639526,
        -0.684548020362854,
        0.72896599769592285
      ],
      "min": [
        -0.72896397113800049,
        -1,
        -0.7289620041847229
      ],
      "type": "VEC3"
    },
    {
      "bufferView": 2,
      "byteOffset": 786384,
      "componentType": 5126,
      "count": 65532,
      "max": [
        0.72891837358474731,
        -0.68453079462051392,
        0.72898101806640625
      ],
      "min": [
        -0.72898000478744507,
        -1,
        -0.72898101806640625
      ],
      "type": "VEC3"
    },
    {
      "bufferView": 3,
      "componentType": 5126,
      "count": 65532,
      "max": [
        1,
        0.0029652297962456942,
        1,
        1
      ],
      "min": [
        -1,
        -0.0029711595270782709,
        -1,
        1
      ],
      "type": "VEC4"
    },
    {
      "bufferView": 1,
      "componentType": 5126,
      "count": 65532,
      "max": [
        2.9999830722808838,
        0.78000098466873169
      ],
      "min": [
        0,
        0
      ],
      "type": "VEC2"
    },
    {
      "bufferView": 0,
      "componentType": 5125,
      "count": 387915,
      "max": [
        65531
      ],
      "min": [
        0
      ],
      "type": "SCALAR"
    },
    {
      "bufferView": 2,
      "byteOffset": 1572768,
      "componentType": 5126,
      "count": 65532,
      "max": [
        1,
        0.062793999910354614,
        0.99999701976776123
      ],
      "min": [
        -0.99999499320983887,
        -0.69365400075912476,
        -0.9999920129776001
      ],
      "type": "VEC3"
    },
    {
      "bufferView": 2,
      "byteOffset": 2359152,
      "componentType": 5126,
      "count": 65532,
      "max": [
        1,
        0.062797017395496368,
        1
      ],
      "min": [
        -1,
        -0.69363301992416382,
        -1
      ],
      "type": "VEC3"
    },
    {
      "bufferView": 3,
      "byteOffset": 1048512,
      "componentType": 5126,
      "count": 65532,
      "max": [
        1,
        0.002937625627964735,
        1,
        1
      ],
      "min": [
        -1,
        -0.002948269248008728,
        -1,
        1
      ],
      "type": "VEC4"
    },
    {
      "bufferView": 1,
      "byteOffset": 524256,
      "componentType": 5126,
      "count": 65532,
      "max": [
        2.9999830722808838,
        1.560001015663147
      ],
      "min": [
        0,
        0.76800000667572021
      ],
      "type": "VEC2"
    },
    {
      "bufferView": 0,
      "byteOffset": 1551660,
      "componentType": 5125,
      "count": 389403,
      "max": [
        65531
      ],
      "min": [
        0
      ],
      "type": "SCALAR"
    },
    {
      "bufferView": 2,
      "byteOffset": 3145536,
      "componentType": 5126,
      "count": 65532,
      "max": [
        0.9989439845085144,
        0.77051401138305664,
        0.99802398681640625
      ],
      "min": [
        -0.99802201986312866,
        0.043970998376607895,
        -0.99801898002624512
      ],
      "type": "VEC3"
    },
    {
      "bufferView": 2,
      "byteOffset": 3931920,
      "componentType": 5126,
      "count": 65532,
      "max": [
        0.99894887208938599,
        0.77050226926803589,
        0.99802678823471069
      ],
      "min": [
        -0.99802690744400024,
        0.043967995792627335,
        -0.99802678823471069
      ],
      "type": "VEC3"
    },
    {
      "bufferView": 3,
      "byteOffset": 2097024,
      "componentType": 5126,
      "count": 65532,
      "max": [
        1,
        0.0029711800161749125,
        1,
        1
      ],
      "min": [
        -1,
        -0.0029694729018956423,
        -1,
        1
      ],
      "type": "VEC4"
    },
    {
      "bufferView": 1,
      "byteOffset": 1048512,
      "componentType": 5126,
      "count": 65532,
      "max": [
        2.9999830722808838,
        2.3399910926818848
      ],
      "min": [
        0,
        1.5420010089874268
      ],
      "type": "VEC2"
    },
    {
      "bufferView": 0,
      "byteOffset": 3109272,
      "componentType": 5125,
      "count": 389403,
      "max": [
        65531
      ],
      "min": [
        0
      ],
      "type": "SCALAR"
    },
    {
      "bufferView": 2,
      "byteOffset": 4718304,
      "componentType": 5126,
      "count": 55909,
      "max": [
        0.65652698278427124,
        1,
        0.63742202520370483
      ],
      "min": [
        -0.63741999864578247,
        0.75425201654434204,
        -0.63741898536682129
      ],
      "type": "VEC3"
    },
    {
      "bufferView": 2,
      "byteOffset": 5389212,
      "componentType": 5126,
      "count": 55909,
      "max": [
        0.65655183792114258,
        1,
        0.63744115829467773
      ],
      "min": [
        -0.63744276762008667,
        0.75423282384872437,
        -0.63744384050369263
      ],
      "type": "VEC3"
    },
    {
      "bufferView": 3,
      "byteOffset": 3145536,
      "componentType": 5126,
      "count": 55909,
      "max": [
        1,
        0.00288982386700809,
        1,
        1
      ],
      "min": [
        -1,
        -0.0029358693864196539,
        -1,
        1
      ],
      "type": "VEC4"
    },
    {
      "bufferView": 1,
      "byteOffset": 1572768,
      "componentType": 5126,
      "count": 55909,
      "max": [
        2.9999830722808838,
        3
      ],
      "min": [
        0,
        2.3159909248352051
      ],
      "type": "VEC2"
    },
    {
      "bufferView": 0,
      "byteOffset": 4666884,
      "componentType": 5125,
      "count": 330279,
      "max": [
        55908
      ],
      "min": [
        0
      ],
      "type": "SCALAR"
    }
  ],
  "asset": {
    "extras": {
      "author": "Sergey Khanin (https://sketchfab.com/Sergey.Khanin)",
      "license": "CC-BY-4.0 (http://creativecommons.org/licenses/by/4.0/)",
      "source": "https://sketchfab.com/3d-models/wood-texture-9ee42c471970416791b919ea0ec814b2",
      "title": "Wood texture"
    },
    "generator": "Sketchfab-6.84.0",
    "version": "2.0"
  },
  "bufferViews": [
    {
      "buffer": 0,
      "byteLength": 5988000,
      "byteOffset": 0,
      "name": "floatBufferViews",
      "target": 34963
    },
    {
      "buffer": 0,
      "byteLength": 2020040,
      "byteOffset": 5988000,
      "byteStride": 8,
      "name": "floatBufferViews",
      "target": 34962
    },
    {
      "buffer": 0,
      "byteLength": 6060120,
      "byteOffset": 8008040,
      "byteStride": 12,
      "name": "floatBufferViews",
      "target": 34962
    },
    {
      "buffer": 0,
      "byteLength": 4040080,
      "byteOffset": 14068160,
      "byteStride": 16,
      "name": "floatBufferViews",
      "target": 34962
    }
  ],
  "buffers": [
    {
      "byteLength": 18108240,
      "uri": "scene.bin"
    }
  ],
  "images": [
    {
      "uri": "textures/Scene_-_Root_baseColor.png"
    },
    {
      "uri": "textures/Scene_-_Root_metallicRoughness.png"
    },
    {
      "uri": "textures/Scene_-_Root_normal.png"
    }
  ],
  "materials": [
    {
      "doubleSided": true,
      "name": "Scene_-_Root",
      "normalTexture": {
        "index": 2,
        "scale": 1,
        "texCoord": 0
      },
      "occlusionTexture": {
        "index": 1,
        "strength": 1,
        "texCoord": 0
      },
      "pbrMetallicRoughness": {
        "baseColorFactor": [
          1,
          1,
          1,
          1
        ],
        "baseColorTexture": {
          "index": 0,
          "texCoord": 0
        },
        "metallicFactor": 1,
        "metallicRoughnessTexture": {
          "index": 1,
          "texCoord": 0
        },
        "roughnessFactor": 1
      }
    }
  ],
  "meshes": [
    {
      "name": "mesh__0",
      "primitives": [
        {
          "attributes": {
            "NORMAL": 1,
            "POSITION": 0,
            "TANGENT": 2,
            "TEXCOORD_0": 3
          },
          "indices": 4,
          "material": 0,
          "mode": 4
        }
      ]
    },
    {
      "name": "mesh__0",
      "primitives": [
        {
          "attributes": {
            "NORMAL": 6,
            "POSITION": 5,
            "TANGENT": 7,
            "TEXCOORD_0": 8
          },
          "indices": 9,
          "material": 0,
          "mode": 4
        }
      ]
    },
    {
      "name": "mesh__0",
      "primitives": [
        {
          "attributes": {
            "NORMAL": 11,
            "POSITION": 10,
            "TANGENT": 12,
            "TEXCOORD_0": 13
          },
          "indices": 14,
          "material": 0,
          "mode": 4
        }
      ]
    },
    {
      "name": "mesh__0",
      "primitives": [
        {
          "attributes": {
            "NORMAL": 16,
            "POSITION": 15,
            "TANGENT": 17,
            "TEXCOORD_0": 18
          },
          "indices": 19,
          "material": 0,
          "mode": 4
        }
      ]
    }
  ],
  "nodes": [
    {
      "children": [
        1
      ],
      "name": "RootNode (gltf orientation matrix)",
      "rotation": [
        -0.70710678118654746,
        -0,
        -0,
        0.70710678118654757
      ]
    },
    {
      "children": [
        2
      ],
      "name": "RootNode (model correction matrix)"
    },
    {
      "children": [
        3
      ],
      "matrix": [
        1,
        0,
        0,
        0,
        0,
        0,
        1,
        0,
        0,
        -1,
        0,
        0,
        0,
        0,
        0,
        1
      ],
      "name": "8faa6ca4dd414b6e99554ca707a1488d.fbx"
    },
    {
      "children": [
        4
      ],
      "name": "RootNode"
    },
    {
      "children": [
        5
      ],
      "name": "Material_render_sphere"
    },
    {
      "children": [
        6,
        7,
        8,
        9
      ],
      "matrix": [
        0.70710640455859375,
        -0.70710715781430078,
        0,
        0,
        0.70710715781430078,
        0.70710640455859375,
        0,
        0,
        0,
        0,
        1,
        0,
        0,
        0,
        0,
        1
      ],
      "name": "mesh"
    },
    {
      "mesh": 0,
      "name": "mesh__0"
    },
    {
      "mesh": 1,
      "name": "mesh__0"
    },
    {
      "mesh": 2,
      "name": "mesh__0"
    },
    {
      "mesh": 3,
      "name": "mesh__0"
    }
  ],
  "samplers": [
    {
      "magFilter": 9729,
      "minFilter": 9987,
      "wrapS": 10497,
      "wrapT": 10497
    }
  ],
  "scene": 0,
  "scenes": [
    {
      "name": "OSG_Scene",
      "nodes": [
        0
      ]
    }
  ],
  "textures": [
    {
      "sampler": 0,
      "source": 0
    },
    {
      "sampler": 0,
      "source": 1
    },
    {
      "sampler": 0,
      "source": 2
    }
  ]
}

